<svg width="36" height="36" viewBox="0 0 36 36" fill="none" xmlns="http://www.w3.org/2000/svg">
<path d="M18.0194 0.500002C27.6138 0.494982 35.502 8.38615 35.5 17.988C35.498 27.6422 27.6504 35.501 18.015 35.5C8.37469 35.5 0.497993 27.6529 0.5 18.0585C0.502009 8.34732 8.32912 0.505024 18.0194 0.500002Z" stroke="#BC8F60"/>
<path d="M18.3111 7.20312C20.4194 7.27544 22.3263 8.29504 23.697 10.2784C24.6029 11.5894 24.9934 13.0625 24.9293 14.6523C24.888 15.674 24.6236 16.6481 24.2496 17.5944C23.6619 19.0809 22.8345 20.4311 21.8841 21.7099C20.8894 23.0498 19.7882 24.2977 18.5807 25.4505C18.2119 25.8028 17.7853 25.8059 17.4197 25.4536C15.5903 23.6851 13.9623 21.7523 12.6887 19.5395C12.0451 18.4228 11.5338 17.2514 11.2487 15.988C10.5731 12.9963 11.7703 9.96028 14.2805 8.31673C15.4105 7.57708 16.6563 7.20932 18.3111 7.20312ZM17.996 23.8597C18.0208 23.838 18.0343 23.8287 18.0456 23.8173C19.4546 22.3804 20.7303 20.836 21.7746 19.1108C22.3862 18.1016 22.9006 17.0469 23.1909 15.8961C23.5896 14.3176 23.4264 12.8083 22.5866 11.4003C20.7468 8.31363 16.6046 7.82191 14.1606 10.4179C12.7258 11.9427 12.3178 13.767 12.7827 15.7928C13.0368 16.9012 13.5212 17.9167 14.0935 18.8918C15.1079 20.6222 16.3629 22.1665 17.7492 23.6086C17.8266 23.6923 17.9082 23.7719 17.996 23.8597Z" fill="#BC8F60"/>
<path d="M17.8866 28.7961C16.268 28.7889 14.5543 28.6174 12.8809 28.1401C12.1588 27.9346 11.4533 27.6825 10.8232 27.2662C10.5608 27.0937 10.3077 26.8933 10.0929 26.665C9.30266 25.822 9.32641 24.7601 10.1311 23.9306C10.5815 23.4667 11.131 23.1537 11.7219 22.9172C12.1898 22.7302 12.6722 22.5752 13.1556 22.4296C13.5802 22.3015 13.9975 22.5453 14.1132 22.9595C14.2299 23.3768 13.9841 23.7818 13.5564 23.9182C13.0802 24.071 12.602 24.227 12.1413 24.4192C11.8675 24.5328 11.6217 24.7157 11.3696 24.8768C11.288 24.9285 11.2167 25.0028 11.1548 25.0782C11.0246 25.2353 11.0267 25.3892 11.1537 25.5483C11.3479 25.791 11.602 25.9584 11.8716 26.102C12.5927 26.4863 13.3684 26.7135 14.1638 26.8809C15.6936 27.2011 17.2421 27.2931 18.8008 27.2362C20.0662 27.1898 21.3171 27.042 22.5412 26.7084C23.1258 26.5493 23.6991 26.3561 24.2208 26.0421C24.4326 25.914 24.6298 25.7528 24.8086 25.5803C24.9935 25.4016 24.9924 25.2001 24.7962 25.0328C24.5761 24.8448 24.3355 24.6743 24.0834 24.5318C23.5721 24.2425 23.0133 24.071 22.4482 23.9182C22.1342 23.8334 21.9317 23.632 21.8698 23.3107C21.8098 22.9998 21.9162 22.7415 22.1652 22.5494C22.3429 22.413 22.5505 22.3572 22.7705 22.413C23.6599 22.6382 24.5162 22.945 25.2878 23.4543C25.669 23.7064 26.0027 24.0101 26.2289 24.415C26.5832 25.0493 26.5656 25.6815 26.1865 26.2983C25.8859 26.7889 25.4449 27.1288 24.9501 27.4046C24.1681 27.8416 23.3221 28.1071 22.4554 28.3116C20.9917 28.6577 19.5043 28.792 17.8866 28.7961Z" fill="#BC8F60"/>
<path d="M17.9954 10.29C20.1223 10.288 21.8505 12.0131 21.8525 14.1391C21.8536 16.2692 20.1327 17.9985 18.0078 18.0006C15.8727 18.0026 14.1456 16.2785 14.1445 14.1453C14.1445 12.0173 15.8675 10.2921 17.9954 10.29ZM17.9882 16.4583C19.2536 16.4706 20.3021 15.4356 20.3134 14.1649C20.3238 12.8933 19.2949 11.8427 18.0285 11.8324C16.7362 11.822 15.693 12.8499 15.6837 14.1443C15.6744 15.4066 16.7094 16.4459 17.9882 16.4583Z" fill="#BC8F60"/>
</svg>
