<svg width="29" height="29" viewBox="0 0 29 29" fill="none" xmlns="http://www.w3.org/2000/svg">
<path d="M9.62969 6.77142C9.85186 6.07906 10.1805 5.77699 10.6757 5.80445C11.1591 5.83108 11.4728 6.13898 11.6201 6.74978C12.24 6.74978 12.8666 6.74978 13.494 6.74978C13.7395 6.06824 14.0399 5.79113 14.5192 5.80361C15.0026 5.8161 15.3114 6.11151 15.4953 6.75311C16.1069 6.75311 16.7251 6.75311 17.3708 6.75311C17.4832 6.19307 17.7861 5.79446 18.4251 5.8111C18.9028 5.82359 19.1923 6.13648 19.3579 6.76559C19.5709 6.79971 19.7956 6.82551 20.0153 6.87377C21.8801 7.28653 23.1773 8.84517 23.194 10.7791C23.2189 13.5818 23.2206 16.3854 23.1948 19.1881C23.174 21.4283 21.4831 23.1608 19.2281 23.1933C16.0727 23.2382 12.9165 23.2399 9.76116 23.1925C7.46869 23.1575 5.80446 21.3858 5.79863 19.0866C5.79198 16.3979 5.79614 13.7091 5.79697 11.0204C5.7978 8.71452 7.19492 7.1126 9.4824 6.79472C9.53316 6.78557 9.58392 6.77808 9.62969 6.77142ZM9.63634 8.73948C8.49968 8.83102 7.73413 9.71061 7.73163 10.9281C7.72747 13.6268 7.72747 16.3255 7.73163 19.025C7.7333 20.4031 8.61035 21.2693 10.0008 21.2702C13.0006 21.2727 16.0003 21.2727 19.0001 21.2677C19.2364 21.2677 19.4802 21.2477 19.7082 21.1895C20.6793 20.9423 21.266 20.1226 21.2676 19.0233C21.271 16.3346 21.2693 13.6467 21.2668 10.958C21.2668 10.7824 21.2535 10.6052 21.2269 10.4313C21.0896 9.52421 20.3065 8.81188 19.3588 8.74114C19.2431 9.28704 18.9485 9.68232 18.3427 9.66901C17.7544 9.65569 17.4715 9.26374 17.3742 8.722C16.7359 8.722 16.1168 8.722 15.5019 8.722C15.2847 9.39855 14.9985 9.66401 14.4984 9.66401C14.0008 9.66401 13.7187 9.40105 13.4974 8.72783C12.8724 8.72783 12.245 8.72783 11.6226 8.72783C11.4678 9.35112 11.1433 9.66484 10.6549 9.67649C10.1631 9.68814 9.83938 9.39439 9.63634 8.73948Z" fill="#A17445"/>
<path d="M13.5929 16.0327C13.8101 15.7981 14.0348 15.5409 14.2744 15.2988C15.0699 14.4957 15.8704 13.6977 16.6718 12.8996C16.9497 12.6225 17.2775 12.5093 17.6645 12.6275C18.0364 12.7415 18.2561 12.9987 18.3335 13.3731C18.4017 13.7027 18.3002 13.9956 18.0689 14.2286C16.7899 15.5159 15.5101 16.8025 14.2187 18.0773C13.806 18.4851 13.2493 18.466 12.8299 18.054C12.2008 17.4366 11.5776 16.8133 10.9601 16.1842C10.5491 15.7656 10.5474 15.1789 10.9385 14.7928C11.3296 14.4067 11.9071 14.4183 12.3306 14.8294C12.7176 15.2047 13.0953 15.5892 13.4781 15.9695C13.4914 15.9853 13.5131 15.9911 13.5929 16.0327Z" fill="#A17445"/>
</svg>
