<svg width="36" height="36" viewBox="0 0 36 36" fill="none" xmlns="http://www.w3.org/2000/svg">
<path d="M18.0194 0.500002C27.6138 0.494982 35.502 8.38615 35.5 17.988C35.498 27.6422 27.6504 35.501 18.015 35.5C8.37469 35.5 0.497993 27.6529 0.5 18.0585C0.502009 8.34732 8.32912 0.505024 18.0194 0.500002Z" stroke="#BC8F60"/>
<path d="M23.6793 19.3912C23.2887 19.0007 22.7589 18.7813 22.2065 18.7813C21.6541 18.7813 21.1243 19.0007 20.7336 19.3912L19.8461 20.2745C19.6118 20.5086 19.2941 20.6401 18.9628 20.6401C18.6316 20.6401 18.3139 20.5086 18.0795 20.2745L15.7255 17.9205C15.4914 17.6861 15.3599 17.3684 15.3599 17.0372C15.3599 16.7059 15.4914 16.3882 15.7255 16.1539C16.5588 15.3206 17.2171 14.8456 17.2171 13.7956C17.2171 12.6457 16.7379 12.454 13.3672 9.07913C12.9765 8.68858 12.4468 8.46918 11.8944 8.46918C11.3419 8.46918 10.8122 8.68858 10.4215 9.07913L9.82985 9.6666C8.6582 10.8386 8 12.428 8 14.0852C8 15.7424 8.6582 17.3318 9.82985 18.5038L17.4921 26.1702C18.6641 27.3418 20.2534 28 21.9106 28C23.5679 28 25.1572 27.3418 26.3292 26.1702L26.9209 25.5785C27.3114 25.1878 27.5308 24.6581 27.5308 24.1056C27.5308 23.5532 27.3114 23.0235 26.9209 22.6328L23.6793 19.3912ZM26.3334 24.991C25.783 25.6313 25.1209 26.1664 24.3793 26.5701L21.0461 23.2369C20.9671 23.1563 20.8593 23.1103 20.7464 23.1091C20.6334 23.1079 20.5247 23.1517 20.444 23.2307C20.3634 23.3097 20.3174 23.4175 20.3162 23.5304C20.315 23.6433 20.3588 23.7521 20.4378 23.8327L23.5418 26.916C22.5962 27.2144 21.5867 27.2475 20.6235 27.0117C19.6603 26.7758 18.7803 26.2801 18.0795 25.5785L10.4215 17.9205C9.7199 17.2197 9.22416 16.3397 8.98832 15.3765C8.75248 14.4133 8.78559 13.4038 9.08404 12.4582L12.1881 15.5622C12.2678 15.6305 12.3703 15.6661 12.4752 15.6621C12.58 15.658 12.6795 15.6146 12.7537 15.5404C12.8279 15.4662 12.8714 15.3667 12.8754 15.2618C12.8795 15.157 12.8438 15.0544 12.7756 14.9747L9.44236 11.6415C9.84059 10.8937 10.3714 10.2246 11.009 9.6666C11.2433 9.43253 11.561 9.30105 11.8923 9.30105C12.2235 9.30105 12.5412 9.43253 12.7756 9.6666C16.2421 13.1331 16.3838 13.0956 16.3838 13.7914C16.3838 14.4873 15.9296 14.7622 15.1338 15.5581C14.7433 15.9487 14.5239 16.4785 14.5239 17.0309C14.5239 17.5833 14.7433 18.1131 15.1338 18.5038L17.4921 20.862C17.8827 21.2526 18.4125 21.472 18.9649 21.472C19.5173 21.472 20.0471 21.2526 20.4378 20.862L21.3336 19.9829C21.572 19.7566 21.8882 19.6305 22.2169 19.6305C22.5456 19.6305 22.8617 19.7566 23.1002 19.9829L26.3334 23.2244C26.5675 23.4588 26.6989 23.7765 26.6989 24.1077C26.6989 24.439 26.5675 24.7567 26.3334 24.991ZM23.0002 15.9164C23.0002 16.0269 23.0441 16.1329 23.1222 16.211C23.2004 16.2891 23.3063 16.333 23.4168 16.333C23.5273 16.333 23.6333 16.2891 23.7115 16.211C23.7896 16.1329 23.8335 16.0269 23.8335 15.9164C23.8335 12.5582 19.667 11.4249 19.667 12.5832C19.667 12.6937 19.7109 12.7996 19.789 12.8778C19.8671 12.9559 19.9731 12.9998 20.0836 12.9998C20.8571 12.9998 21.599 13.3071 22.1459 13.8541C22.6929 14.401 23.0002 15.1429 23.0002 15.9164ZM20.0836 8C19.9731 8 19.8671 8.0439 19.789 8.12203C19.7109 8.20017 19.667 8.30615 19.667 8.41665C19.667 8.52715 19.7109 8.63313 19.789 8.71127C19.8671 8.78941 19.9731 8.8333 20.0836 8.8333C21.0138 8.8333 21.9348 9.01651 22.7942 9.37247C23.6536 9.72843 24.4344 10.2502 25.0921 10.9079C25.7498 11.5656 26.2716 12.3464 26.6275 13.2058C26.9835 14.0652 27.1667 14.9862 27.1667 15.9164C27.1667 16.0269 27.2106 16.1329 27.2887 16.211C27.3669 16.2891 27.4728 16.333 27.5833 16.333C27.6939 16.333 27.7998 16.2891 27.878 16.211C27.9561 16.1329 28 16.0269 28 15.9164C28 13.8168 27.166 11.8033 25.6813 10.3187C24.1967 8.83404 22.1832 8 20.0836 8Z" fill="#BC8F60" stroke="#BC8F60" stroke-width="0.5"/>
</svg>
