<svg width="36" height="36" viewBox="0 0 36 36" fill="none" xmlns="http://www.w3.org/2000/svg">
    <path d="M18.02.5C27.613.495 35.501 8.386 35.5 17.988 35.498 27.642 27.65 35.5 18.015 35.5 8.375 35.5.498 27.653.5 18.058.502 8.348 8.33.505 18.02.5z" stroke="#BC8F60"/>
    <path d="M18.841 26.998v-7.752h2.654l.397-3.023h-3.05v-1.93c0-.874.247-1.47 1.527-1.47L22 12.823v-2.704A22.565 22.565 0 0 0 19.622 10c-2.351 0-3.962 1.408-3.962 3.995v2.228H13v3.023h2.66V27h3.181v-.002z" fill="#BC8F60"/>
</svg>
