<svg width="36" height="36" viewBox="0 0 36 36" fill="none" xmlns="http://www.w3.org/2000/svg">
<path d="M18.0194 0.500002C27.6138 0.494982 35.502 8.38615 35.5 17.988C35.498 27.6422 27.6504 35.501 18.015 35.5C8.37469 35.5 0.497993 27.6529 0.5 18.0585C0.502009 8.34732 8.32912 0.505024 18.0194 0.500002Z" stroke="#BC8F60"/>
<rect x="9.5" y="9.5" width="17" height="17" rx="4.5" stroke="#BC8F60"/>
<path d="M22.366 14.1713H22.3643C22.0685 14.1713 21.8282 13.9316 21.8282 13.6355C21.8282 13.34 22.0678 13.0996 22.3643 13.0996C22.6613 13.0996 22.9003 13.3387 22.9003 13.6355C22.9003 13.9338 22.6601 14.1723 22.366 14.1713ZM13.8203 18.2457C13.8203 16.0736 15.5823 14.3118 17.7551 14.3118C19.9279 14.3118 21.6899 16.0736 21.6899 18.2457C21.6899 20.4178 19.9279 22.1796 17.7551 22.1796C15.5823 22.1796 13.8203 20.4178 13.8203 18.2457ZM14.3754 18.2457C14.3754 20.1112 15.8904 21.6228 17.7551 21.6228C19.6203 21.6228 21.1328 20.1108 21.1328 18.2457C21.1328 16.3788 19.6205 14.8666 17.7551 14.8666C15.8877 14.8666 14.3754 16.3808 14.3754 18.2457Z" fill="#BC8F60" stroke="#BC8F60"/>
</svg>
