<svg width="29" height="29" viewBox="0 0 29 29" fill="none" xmlns="http://www.w3.org/2000/svg">
<path d="M14.7522 5.80261C16.4506 5.86086 17.9867 6.68221 19.0909 8.27996C19.8206 9.33597 20.1352 10.5226 20.0836 11.8033C20.0503 12.6263 19.8373 13.4111 19.5361 14.1733C19.0626 15.3708 18.3961 16.4584 17.6305 17.4887C16.8292 18.568 15.9422 19.5732 14.9694 20.5019C14.6724 20.7857 14.3287 20.7882 14.0341 20.5044C12.5605 19.0798 11.249 17.5228 10.223 15.7403C9.70464 14.8407 9.29274 13.897 9.06308 12.8793C8.51887 10.4694 9.48329 8.02365 11.5053 6.69968C12.4157 6.10385 13.4192 5.80761 14.7522 5.80261ZM14.4984 19.2204C14.5184 19.2029 14.5292 19.1954 14.5384 19.1863C15.6734 18.0287 16.701 16.7846 17.5423 15.3949C18.0349 14.5819 18.4493 13.7323 18.6831 12.8053C19.0043 11.5337 18.8729 10.3179 18.1964 9.18369C16.7144 6.69719 13.3776 6.30108 11.4088 8.3923C10.253 9.62057 9.92431 11.0902 10.2988 12.722C10.5035 13.6149 10.8937 14.433 11.3547 15.2185C12.1719 16.6124 13.1829 17.8565 14.2996 19.0182C14.362 19.0856 14.4277 19.1497 14.4984 19.2204Z" fill="#A17445"/>
<path d="M14.4099 23.1973C13.106 23.1915 11.7255 23.0533 10.3775 22.6689C9.79585 22.5033 9.22751 22.3002 8.71993 21.9648C8.50857 21.8259 8.3047 21.6644 8.13162 21.4805C7.49505 20.8015 7.51419 19.946 8.16241 19.2778C8.52521 18.9042 8.9679 18.652 9.44386 18.4614C9.82081 18.3108 10.2094 18.186 10.5988 18.0687C10.9408 17.9655 11.277 18.1619 11.3702 18.4956C11.4642 18.8318 11.2662 19.158 10.9217 19.2678C10.5381 19.391 10.1528 19.5166 9.7817 19.6714C9.56119 19.7629 9.36315 19.9102 9.16011 20.0401C9.09438 20.0817 9.03696 20.1416 8.98703 20.2023C8.88219 20.3288 8.88385 20.4528 8.9862 20.581C9.14264 20.7765 9.34734 20.9113 9.56452 21.027C10.1453 21.3366 10.7703 21.5196 11.411 21.6544C12.6433 21.9124 13.8907 21.9865 15.1463 21.9407C16.1657 21.9033 17.1734 21.7843 18.1594 21.5155C18.6304 21.3873 19.0922 21.2317 19.5124 20.9787C19.683 20.8755 19.842 20.7457 19.9859 20.6068C20.1349 20.4628 20.134 20.3005 19.9759 20.1657C19.7987 20.0143 19.6048 19.877 19.4018 19.7621C18.9899 19.5291 18.5397 19.391 18.0845 19.2678C17.8316 19.1996 17.6685 19.0373 17.6186 18.7785C17.5703 18.528 17.656 18.32 17.8565 18.1652C17.9997 18.0553 18.1669 18.0104 18.3442 18.0553C19.0606 18.2368 19.7504 18.4839 20.372 18.8942C20.6791 19.0972 20.9478 19.3419 21.1301 19.6681C21.4155 20.179 21.4013 20.6883 21.096 21.1851C20.8538 21.5804 20.4985 21.8542 20.0999 22.0764C19.47 22.4284 18.7885 22.6422 18.0904 22.807C16.9113 23.0858 15.713 23.1939 14.4099 23.1973Z" fill="#A17445"/>
<path d="M14.4976 8.28894C16.211 8.28728 17.6031 9.67699 17.6047 11.3896C17.6056 13.1055 16.2193 14.4985 14.5076 14.5002C12.7876 14.5019 11.3963 13.113 11.3955 11.3946C11.3955 9.68032 12.7835 8.29061 14.4976 8.28894ZM14.4918 13.2578C15.5111 13.2678 16.3557 12.4339 16.3649 11.4104C16.3732 10.386 15.5444 9.53968 14.5243 9.53136C13.4833 9.52304 12.6428 10.351 12.6354 11.3937C12.6279 12.4106 13.4616 13.2478 14.4918 13.2578Z" fill="#A17445"/>
</svg>
