<svg width="36" height="36" viewBox="0 0 36 36" fill="none" xmlns="http://www.w3.org/2000/svg">
<path d="M18.0194 0.500002C27.6138 0.494982 35.502 8.38615 35.5 17.988C35.498 27.6422 27.6504 35.501 18.015 35.5C8.37469 35.5 0.497993 27.6529 0.5 18.0585C0.502009 8.34732 8.32912 0.505024 18.0194 0.500002Z" stroke="#BC8F60"/>
<path d="M25.1591 25.2513H10.8409C10.0877 25.2505 9.36564 24.9509 8.83306 24.4183C8.30048 23.8857 8.00088 23.1636 8 22.4104V13.8409C8.00088 13.0877 8.30048 12.3656 8.83306 11.8331C9.36564 11.3005 10.0877 11.0009 10.8409 11H25.1591C25.9123 11.0009 26.6344 11.3005 27.1669 11.8331C27.6995 12.3656 27.9991 13.0877 28 13.8409V22.4104C27.9991 23.1636 27.6995 23.8857 27.1669 24.4183C26.6344 24.9509 25.9123 25.2505 25.1591 25.2513ZM10.8409 12.0027C10.3534 12.0027 9.88582 12.1963 9.54108 12.5411C9.19634 12.8858 9.00267 13.3534 9.00267 13.8409V22.4104C9.00267 22.898 9.19634 23.3655 9.54108 23.7103C9.88582 24.055 10.3534 24.2487 10.8409 24.2487H25.1591C25.6466 24.2487 26.1142 24.055 26.4589 23.7103C26.8037 23.3655 26.9973 22.898 26.9973 22.4104V13.8409C26.9973 13.3534 26.8037 12.8858 26.4589 12.5411C26.1142 12.1963 25.6466 12.0027 25.1591 12.0027H10.8409Z" fill="#BC8F60" stroke="#BC8F60" stroke-width="0.5"/>
<path d="M17.9987 20.1581C17.3802 20.1591 16.7783 19.9584 16.2841 19.5866L8.47994 13.6842C8.4248 13.6455 8.37802 13.596 8.3424 13.5389C8.30679 13.4817 8.28306 13.4179 8.27264 13.3514C8.26222 13.2848 8.26531 13.2168 8.28175 13.1515C8.29818 13.0862 8.32761 13.0248 8.36828 12.9711C8.40895 12.9174 8.46002 12.8725 8.51845 12.8389C8.57689 12.8054 8.64147 12.784 8.70836 12.776C8.77525 12.768 8.84306 12.7736 8.90775 12.7924C8.97245 12.8111 9.03269 12.8428 9.08488 12.8854L16.889 18.7944C17.2095 19.0337 17.5987 19.1629 17.9987 19.1629C18.3986 19.1629 18.7878 19.0337 19.1083 18.7944L26.9124 12.8854C26.9646 12.8428 27.0249 12.8111 27.0896 12.7924C27.1542 12.7736 27.2221 12.768 27.2889 12.776C27.3558 12.784 27.4204 12.8054 27.4788 12.8389C27.5373 12.8725 27.5884 12.9174 27.629 12.9711C27.6697 13.0248 27.6991 13.0862 27.7156 13.1515C27.732 13.2168 27.7351 13.2848 27.7247 13.3514C27.7142 13.4179 27.6905 13.4817 27.6549 13.5389C27.6193 13.596 27.5725 13.6455 27.5174 13.6842L19.7132 19.5866C19.219 19.9584 18.6171 20.1591 17.9987 20.1581Z" fill="#BC8F60" stroke="#BC8F60" stroke-width="0.5"/>
<path d="M8.69934 23.854C8.59766 23.8542 8.49834 23.8234 8.41455 23.7658C8.33077 23.7082 8.26648 23.6264 8.23022 23.5314C8.19396 23.4364 8.18745 23.3327 8.21154 23.2339C8.23563 23.1351 8.28919 23.046 8.36511 22.9783L14.5148 17.4937C14.6141 17.4051 14.7446 17.3595 14.8774 17.367C15.0103 17.3745 15.1348 17.4345 15.2234 17.5338C15.312 17.6331 15.3576 17.7635 15.3501 17.8964C15.3426 18.0293 15.2826 18.1537 15.1833 18.2424L9.03356 23.727C8.94224 23.8101 8.8228 23.8555 8.69934 23.854ZM27.3023 23.854C27.1788 23.8555 27.0594 23.8101 26.9681 23.727L20.8183 18.2424C20.719 18.1537 20.659 18.0293 20.6515 17.8964C20.644 17.7635 20.6896 17.6331 20.7782 17.5338C20.8669 17.4345 20.9913 17.3745 21.1242 17.367C21.2571 17.3595 21.3875 17.4051 21.4868 17.4937L27.6332 22.9783C27.7091 23.046 27.7626 23.1351 27.7867 23.2339C27.8108 23.3327 27.8043 23.4364 27.7681 23.5314C27.7318 23.6264 27.6675 23.7082 27.5837 23.7658C27.4999 23.8234 27.4006 23.8542 27.2989 23.854H27.3023Z" fill="#BC8F60" stroke="#BC8F60" stroke-width="0.5"/>
</svg>
