<svg width="17" height="16" viewBox="0 0 17 16" fill="none" xmlns="http://www.w3.org/2000/svg">
    <path d="M12.76 9.043a1.562 1.562 0 0 0-2.21 0l-.665.663a.937.937 0 0 1-1.325 0L6.794 7.94a.937.937 0 0 1 0-1.325c.625-.625 1.119-.98 1.119-1.768 0-.863-.36-1.007-2.888-3.538a1.562 1.562 0 0 0-2.209 0l-.444.44a4.687 4.687 0 0 0 0 6.629l5.747 5.75a4.687 4.687 0 0 0 6.628 0l.444-.444a1.563 1.563 0 0 0 0-2.21l-2.432-2.43zm1.99 4.2a5.23 5.23 0 0 1-1.466 1.185l-2.5-2.5a.32.32 0 0 0-.456.447l2.328 2.312a4.064 4.064 0 0 1-4.096-1.003L2.816 7.94a4.062 4.062 0 0 1-1.003-4.096l2.328 2.328a.312.312 0 0 0 .44-.44l-2.5-2.5A5.243 5.243 0 0 1 3.258 1.75a.937.937 0 0 1 1.325 0c2.6 2.6 2.706 2.572 2.706 3.094 0 .521-.34.728-.938 1.325a1.562 1.562 0 0 0 0 2.209l1.769 1.768a1.563 1.563 0 0 0 2.21 0L11 9.487a.962.962 0 0 1 1.325 0l2.425 2.431a.937.937 0 0 1 0 1.325zm-2.5-6.806a.313.313 0 0 0 .625 0c0-2.518-3.125-3.368-3.125-2.5a.312.312 0 0 0 .313.313 2.188 2.188 0 0 1 2.187 2.187zM10.063.5a.312.312 0 0 0 0 .625 5.313 5.313 0 0 1 5.312 5.312.312.312 0 1 0 .625 0A5.937 5.937 0 0 0 10.063.5z" fill="#A17445" stroke="#A17445" stroke-width=".25"/>
</svg>
